# xmcd CD database file
#
# Track frame offsets:
#	150
#	15308
#	30446
#	48517
#	62304
#	76622
#	95153
#	107957
#	138538
#	150059
#	163847
#	174593
#
# Disc length: 2535 seconds
#
# Revision: 0
# Processed by: cddbd v1.5.2PL0 Copyright (c) Steve Scherf et al.
# Submitted via: CDex 1.51
#
DISCID=8509e50c
DTITLE=Daddy Mack Blues Band - Bluesfinger
DYEAR=2010
DGENRE=Blues
TTITLE0=Great Recession Blues
TTITLE1=Mailman
TTITLE2=Bluesfinger
TTITLE3=Can`t Make It Without Your love
TTITLE4=Soda Pop
TTITLE5=Blues Highway
TTITLE6=Honky Tonk
TTITLE7=All Tore Up and Cryin'
TTITLE8=You Got My Money
TTITLE9=Long Hard Road
TTITLE10=If You Got It
TTITLE11=Always Want You
EXTD=YEAR: 2010
EXTT0=
EXTT1=
EXTT2=
EXTT3=
EXTT4=
EXTT5=
EXTT6=
EXTT7=
EXTT8=
EXTT9=
EXTT10=
EXTT11=
PLAYORDER=
